<?xml version="1.0" encoding="utf-8"?>
<!-- Generator: Adobe Illustrator 23.0.3, SVG Export Plug-In . SVG Version: 6.00 Build 0)  -->
<svg version="1.1" id="Layer_1" xmlns="http://www.w3.org/2000/svg" xmlns:xlink="http://www.w3.org/1999/xlink" x="0px" y="0px"
	 viewBox="0 0 595.3 841.9" style="enable-background:new 0 0 595.3 841.9;" xml:space="preserve">
<style type="text/css">
	.st0{fill:#3089C9;}
	.st1{fill:#5152A3;}
	.st2{fill:none;stroke:#3089C9;stroke-width:25;stroke-miterlimit:10;}
</style>
<g>
	<g>
		<path class="st0" d="M360.4,232.7c-38.8-38.6-101.5-38.3-139.9,0.7c-38.4,39-38.1,102.3,0.7,140.9c38.8,38.6,101.6,38.3,140-0.7
			C399.4,334.6,399.1,271.4,360.4,232.7z M239.2,356c-28.7-28.6-28.9-75.4-0.5-104.3c28.4-28.9,74.9-29.1,103.6-0.5
			c28.7,28.6,28.9,75.4,0.5,104.3C314.4,384.3,267.9,384.6,239.2,356z"/>
		<path class="st1" d="M259.3,311.7c-2.1-8.7-10.8-20.7-18.1-16.8c-5.7,3-4.1,16.6-1.3,24.6c12.3,36.5,56.5,44,61.1,39.3
			C305.5,354.3,267.8,346.1,259.3,311.7z"/>
	</g>
</g>
<path d="M219.4,233.4"/>
<path class="st2" d="M376.7,303.6c-0.9,14.8-4,38.3-16.5,60.5c-26.5,47.4-70.5,44.6-89.9,89.3c-5.2,11.9-10.7,31.9-6.3,63.5"/>
<circle class="st0" cx="268.4" cy="549.1" r="20.5"/>
</svg>
